<svg width="376" height="345" viewBox="0 0 376 345" fill="none" xmlns="http://www.w3.org/2000/svg">
<g filter="url(#filter0_d_152_377)">
<path d="M7.8535 325.827L329.209 6.00001L339.538 16.877L10.3292 329.507L7.8535 325.827Z" fill="#AF282F"/>
</g>
<path d="M13.4766 249.087L166.582 252.063C166.582 252.063 178.51 302.554 163.516 317.675C148.521 332.795 23.6561 330.62 10.4105 314.699C-2.83509 298.778 13.4766 249.087 13.4766 249.087Z" fill="#FDEEE0"/>
<circle cx="12.6487" cy="282.618" r="10.5" transform="rotate(13.4079 12.6487 282.618)" fill="#FDEEE0"/>
<circle cx="17.2266" cy="313.008" r="11" transform="rotate(13.4079 17.2266 313.008)" fill="#FDEEE0"/>
<circle cx="17.2266" cy="313.008" r="11" transform="rotate(13.4079 17.2266 313.008)" fill="#FDEEE0"/>
<ellipse cx="163.549" cy="285.693" rx="11" ry="10.5" transform="rotate(13.4079 163.549 285.693)" fill="#FDEEE0"/>
<circle cx="58.0821" cy="322.747" r="11" transform="rotate(13.4079 58.0821 322.747)" fill="#FDEEE0"/>
<ellipse cx="28.3425" cy="320.284" rx="7.5" ry="6.5" transform="rotate(13.4079 28.3425 320.284)" fill="#FDEEE0"/>
<ellipse cx="28.3425" cy="320.284" rx="7.5" ry="6.5" transform="rotate(13.4079 28.3425 320.284)" fill="#FDEEE0"/>
<ellipse cx="164.538" cy="309.573" rx="7.5" ry="8.5" transform="rotate(13.4079 164.538 309.573)" fill="#FDEEE0"/>
<ellipse cx="11.1477" cy="7.17326" rx="11.1477" ry="7.17326" transform="matrix(0.956415 -0.292012 0.235357 0.971909 125.848 316.913)" fill="#FDEEE0"/>
<ellipse cx="164.519" cy="296.718" rx="7.5" ry="7" transform="rotate(13.4079 164.519 296.718)" fill="#FDEEE0"/>
<ellipse cx="122.125" cy="323.621" rx="7.5" ry="7" transform="rotate(13.4079 122.125 323.621)" fill="#FDEEE0"/>
<ellipse cx="108.113" cy="317.711" rx="11.5" ry="12.5" transform="rotate(13.4079 108.113 317.711)" fill="#FDEEE0"/>
<circle cx="94.1214" cy="324.656" r="7.5" transform="rotate(13.4079 94.1214 324.656)" fill="#FDEEE0"/>
<ellipse cx="11.4274" cy="7.44657" rx="11.4274" ry="7.44657" transform="matrix(0.987117 0.16 -0.169395 0.985548 67.2935 316.226)" fill="#FDEEE0"/>
<circle cx="154.947" cy="319.623" r="7.5" transform="rotate(13.4079 154.947 319.623)" fill="#FDEEE0"/>
<ellipse cx="11.2769" cy="301.309" rx="7.5" ry="8" transform="rotate(13.4079 11.2769 301.309)" fill="#FDEEE0"/>
<ellipse cx="42.0319" cy="318.921" rx="8.5" ry="7" transform="rotate(13.4079 42.0319 318.921)" fill="#FDEEE0"/>
<path d="M19.7072 239.574C37.5693 226.176 133.157 221.06 153.987 236.813C174.817 252.567 184.736 262.545 171.972 275.871C159.208 289.198 16.7726 288.309 5.96112 277.932C-4.85042 267.556 1.84503 252.973 19.7072 239.574Z" fill="#AF282F"/>
<path d="M34.9287 290.499C26.4043 251.384 40.6175 231.691 46.8707 231.665" stroke="#CD614A" stroke-width="2"/>
<path d="M64.993 289.442C53.3695 248.351 69.5576 228.36 77.0045 228.568" stroke="#CD614A" stroke-width="2"/>
<path d="M99.9218 289.544C88.2984 248.454 103.933 228.33 111.38 228.538" stroke="#CD614A" stroke-width="2"/>
<path d="M131.931 288.95C122.989 251.589 135.994 232.762 142.231 232.808" stroke="#CD614A" stroke-width="2"/>
<rect x="55.6377" y="285.197" width="18" height="7.62891" transform="rotate(2.50778 55.6377 285.197)" fill="#FDEEE0"/>
<rect x="90.3652" y="285.734" width="18" height="8.38885" transform="rotate(-0.243043 90.3652 285.734)" fill="#FDEEE0"/>
<rect x="121.653" y="284.806" width="18" height="8.24874" transform="rotate(-3.44421 121.653 284.806)" fill="#FDEEE0"/>
<rect x="24.5386" y="282.817" width="18" height="7.62891" transform="rotate(5.32124 24.5386 282.817)" fill="#FDEEE0"/>
<path d="M145.381 232.531C145.867 232.647 140.308 234.406 140.308 234.406L141.374 232.09L141.976 231.719L145.381 232.531Z" fill="#CD614A" stroke="#CD614A" stroke-width="0.3"/>
<path d="M115.248 227.404C115.748 227.39 111.148 229.511 111.148 229.511L111.112 227.987L111.612 227.565C111.612 227.565 114.749 227.418 115.248 227.404Z" fill="#CD614A" stroke="#CD614A" stroke-width="0.3"/>
<path d="M50.2902 230.434C50.79 230.42 46.6638 232.643 46.6638 232.643L46.1542 231.017L46.0391 230.952C46.0391 230.952 49.7904 230.448 50.2902 230.434Z" fill="#CD614A" stroke="#CD614A" stroke-width="0.3"/>
<path d="M80.821 227.431C81.3209 227.418 76.7064 229.525 76.7064 229.525L76.6851 228.015L76.0813 227.834C76.0813 227.834 80.3212 227.445 80.821 227.431Z" fill="#CD614A" stroke="#CD614A" stroke-width="0.3"/>
<g filter="url(#filter1_d_152_377)">
<path d="M27.5446 341.061L362.038 35L371.901 46.3008L29.8637 344.841L27.5446 341.061Z" fill="#AF282F"/>
</g>
<defs>
<filter id="filter0_d_152_377" x="3.85352" y="0" width="339.685" height="331.507" filterUnits="userSpaceOnUse" color-interpolation-filters="sRGB">
<feFlood flood-opacity="0" result="BackgroundImageFix"/>
<feColorMatrix in="SourceAlpha" type="matrix" values="0 0 0 0 0 0 0 0 0 0 0 0 0 0 0 0 0 0 127 0" result="hardAlpha"/>
<feOffset dy="-2"/>
<feGaussianBlur stdDeviation="2"/>
<feComposite in2="hardAlpha" operator="out"/>
<feColorMatrix type="matrix" values="0 0 0 0 0 0 0 0 0 0 0 0 0 0 0 0 0 0 0.25 0"/>
<feBlend mode="normal" in2="BackgroundImageFix" result="effect1_dropShadow_152_377"/>
<feBlend mode="normal" in="SourceGraphic" in2="effect1_dropShadow_152_377" result="shape"/>
</filter>
<filter id="filter1_d_152_377" x="23.5444" y="26" width="352.357" height="318.841" filterUnits="userSpaceOnUse" color-interpolation-filters="sRGB">
<feFlood flood-opacity="0" result="BackgroundImageFix"/>
<feColorMatrix in="SourceAlpha" type="matrix" values="0 0 0 0 0 0 0 0 0 0 0 0 0 0 0 0 0 0 127 0" result="hardAlpha"/>
<feOffset dy="-5"/>
<feGaussianBlur stdDeviation="2"/>
<feComposite in2="hardAlpha" operator="out"/>
<feColorMatrix type="matrix" values="0 0 0 0 0 0 0 0 0 0 0 0 0 0 0 0 0 0 0.25 0"/>
<feBlend mode="normal" in2="BackgroundImageFix" result="effect1_dropShadow_152_377"/>
<feBlend mode="normal" in="SourceGraphic" in2="effect1_dropShadow_152_377" result="shape"/>
</filter>
</defs>
</svg>
