<svg width="429" height="266" viewBox="0 0 429 266" fill="none" xmlns="http://www.w3.org/2000/svg">
<path d="M5.5 216L404.126 1.36495e-05L410.961 13.3522L6.83515 220.229L5.5 216Z" fill="#AF282F"/>
<rect x="11" y="176" width="101" height="56" fill="black"/>
<ellipse cx="61.5" cy="175.5" rx="50.5" ry="28.5" fill="#252525"/>
<ellipse cx="62" cy="174.5" rx="45" ry="23.5" fill="#FDEEE0"/>
<ellipse cx="61.5" cy="175" rx="30.5" ry="17" fill="#AF282F"/>
<path d="M48.5 158.5C69.4226 175.781 78.7811 178.72 92.5 175.5M41.5 162C44.4684 174.212 47.3554 184.718 71 192" stroke="#CD614A" stroke-width="2"/>
<path d="M93.5 175C93.5 179.909 90.3283 184.725 84.4183 188.44C78.5418 192.134 70.2687 194.5 61 194.5C51.7313 194.5 43.4582 192.134 37.5817 188.44C31.6717 184.725 28.5 179.909 28.5 175C28.5 170.091 31.6717 165.275 37.5817 161.56C43.4582 157.866 51.7313 155.5 61 155.5C70.2687 155.5 78.5418 157.866 84.4183 161.56C90.3283 165.275 93.5 170.091 93.5 175Z" stroke="#FDEEE0" stroke-width="5"/>
<ellipse cx="61.5" cy="232.5" rx="50.5" ry="28.5" fill="black"/>
<path d="M33.9482 255.613L421.305 20L428.797 32.9947L35.4926 259.771L33.9482 255.613Z" fill="#AF282F"/>
</svg>
