<svg width="508" height="421" viewBox="0 0 508 421" fill="none" xmlns="http://www.w3.org/2000/svg">
<path d="M116.705 268.874L481.76 2.80142e-05L490.37 12.2829L118.61 272.879L116.705 268.874Z" fill="#AF282F"/>
<path d="M250.884 50.2945L284.53 153.624L283.231 168.854L202.259 160.157L140.87 108.567L154.092 94.7851L250.884 50.2945Z" fill="black"/>
<path d="M142.006 111.082C144.206 105.587 148.87 101.981 154.463 98.3466C160.057 94.7118 167.114 92.2203 175.219 91.0192C183.325 89.8181 192.312 89.9319 201.652 91.3539C210.991 92.7759 220.493 95.4771 229.595 99.298C238.697 103.119 247.214 107.982 254.644 113.599C262.074 119.217 268.265 125.475 272.852 132.004C277.438 138.533 280.327 145.2 281.348 151.611C282.369 158.023 280.298 170.017 279.506 170.765C278.715 171.513 257.637 171.601 243.603 171.048L223.469 167.099L213.664 164.77L203.768 161.825L195.015 158.079L186.695 153.007L177.666 147.41L169.78 141.013L161.894 134.616L155.151 127.419L147.791 120.314L142.006 111.082Z" fill="#FDEEE0"/>
<path d="M182.273 221.032L182.342 220.905L182.63 220.378C182.883 219.916 183.255 219.235 183.73 218.363C184.68 216.618 186.045 214.106 187.703 211.036C191.02 204.897 195.511 196.528 200.206 187.61C209.597 169.777 219.812 149.744 223.096 140.96C226.381 132.176 230.943 110.94 234.683 91.9063C236.553 82.3882 238.218 73.4189 239.415 66.8291C240.014 63.5342 240.496 60.8342 240.828 58.9579C240.994 58.0197 241.123 57.2875 241.21 56.7898L241.309 56.2227L241.333 56.0883C256.412 61.7507 267.751 75.5847 272.916 94.6375C278.087 113.714 276.653 136.498 268.92 158.096C261.187 179.693 247.772 198.379 231.559 210.142C215.366 221.89 197.674 225.794 182.273 221.032Z" fill="#4DBC70" stroke="black" stroke-width="0.1"/>
<path d="M172.743 211.992L172.792 211.901L173.023 211.479C173.226 211.109 173.523 210.563 173.904 209.864C174.665 208.466 175.759 206.453 177.088 203.993C179.745 199.074 183.343 192.369 187.106 185.224C194.63 170.935 202.815 154.883 205.447 147.845C208.079 140.805 211.734 123.789 214.731 108.539C216.229 100.912 217.563 93.7256 218.523 88.4456C219.003 85.8055 219.389 83.6421 219.655 82.1387C219.788 81.387 219.891 80.8004 219.961 80.4016L220.04 79.9472L220.057 79.8514C232.13 84.3895 241.21 95.4688 245.346 110.728C249.488 126.011 248.34 144.264 242.144 161.567C235.949 178.871 225.201 193.841 212.212 203.265C199.244 212.673 185.076 215.801 172.743 211.992Z" fill="#4DBC70" stroke="black" stroke-width="0.1"/>
<path d="M117.57 372.008L140.669 108.951C155.941 134.973 190.329 156.252 200.408 160.431C210.488 164.611 248.281 174.656 283.086 170.319L117.57 372.008Z" fill="black"/>
<path d="M209.767 104.398C210.538 102.352 212.81 101.304 214.867 102.046L249.201 114.429C251.276 115.177 252.354 117.464 251.61 119.54L235.003 165.896C234.332 167.77 232.386 168.865 230.436 168.466L211.722 164.638C211.527 164.598 211.335 164.544 211.147 164.475L202.12 161.166L194.472 157.825L193.69 157.452C191.813 156.558 190.934 154.376 191.667 152.43L209.767 104.398Z" fill="#AF282F"/>
<path d="M229.682 164.508L235.064 165.599L233.834 169.161L228.93 168.216L229.682 164.508Z" fill="#AF282F"/>
<path d="M192.502 150.78L196.377 152.833L193.85 157.363L192.024 156.257L190.195 155.135L192.502 150.78Z" fill="#AF282F"/>
<path d="M210.223 103.401C236.499 140.347 240.211 142.55 243.327 147.25" stroke="#CD614A" stroke-width="2"/>
<path d="M234.121 107.613C247.259 126.085 249.115 127.187 250.673 129.537" stroke="#CD614A" stroke-width="2"/>
<path d="M202.677 120.259C229.583 158.73 233.508 161.079 236.685 165.968" stroke="#CD614A" stroke-width="2"/>
<path d="M194.448 138.989C211.014 163.42 213.423 164.917 215.379 168.021" stroke="#CD614A" stroke-width="2"/>
<rect x="208.321" y="163.527" width="12.0584" height="6.57729" transform="rotate(13.4018 208.321 163.527)" fill="black"/>
<rect x="194.627" y="135.644" width="3.18546" height="6.57729" transform="rotate(21.2193 194.627 135.644)" fill="#FDEEE0"/>
<rect x="201.116" y="116.943" width="3.70101" height="6.57729" transform="rotate(21.2193 201.116 116.943)" fill="#FDEEE0"/>
<rect x="207.003" y="101.663" width="3.58603" height="2.94061" transform="rotate(21.2193 207.003 101.663)" fill="#FDEEE0"/>
<rect x="238.125" y="107.857" width="2.37477" height="4.58516" transform="rotate(108.534 238.125 107.857)" fill="#4DBC70"/>
<rect x="249.685" y="125.084" width="3.76889" height="6.57729" transform="rotate(21.2193 249.685 125.084)" fill="#4DBC70"/>
<rect x="243.36" y="142.716" width="4.41501" height="6.31618" transform="rotate(20.5608 243.36 142.716)" fill="#4DBC70"/>
<rect x="236.913" y="160.767" width="3.65231" height="6.31618" transform="rotate(20.5608 236.913 160.767)" fill="#4DBC70"/>
<g filter="url(#filter0_d_147_78)">
<path d="M116.245 311.636L495.374 63L503.304 75.7326L117.93 315.739L116.245 311.636Z" fill="#AF282F"/>
</g>
<defs>
<filter id="filter0_d_147_78" x="112.245" y="57" width="395.059" height="260.739" filterUnits="userSpaceOnUse" color-interpolation-filters="sRGB">
<feFlood flood-opacity="0" result="BackgroundImageFix"/>
<feColorMatrix in="SourceAlpha" type="matrix" values="0 0 0 0 0 0 0 0 0 0 0 0 0 0 0 0 0 0 127 0" result="hardAlpha"/>
<feOffset dy="-2"/>
<feGaussianBlur stdDeviation="2"/>
<feComposite in2="hardAlpha" operator="out"/>
<feColorMatrix type="matrix" values="0 0 0 0 0 0 0 0 0 0 0 0 0 0 0 0 0 0 0.25 0"/>
<feBlend mode="normal" in2="BackgroundImageFix" result="effect1_dropShadow_147_78"/>
<feBlend mode="normal" in="SourceGraphic" in2="effect1_dropShadow_147_78" result="shape"/>
</filter>
</defs>
</svg>
