<svg width="202" height="178" viewBox="0 0 202 178" fill="none" xmlns="http://www.w3.org/2000/svg">
<rect y="29" width="101" height="56" fill="black"/>
<ellipse cx="50.5" cy="28.5" rx="50.5" ry="28.5" fill="#252525"/>
<ellipse cx="51" cy="27.5" rx="45" ry="23.5" fill="#FDEEE0"/>
<ellipse cx="50.5" cy="28" rx="30.5" ry="17" fill="#AF282F"/>
<path d="M37.5 11.5C58.4226 28.7814 67.7811 31.72 81.5 28.5M30.5 15C33.4684 27.2122 36.3554 37.7183 60 45" stroke="#CD614A" stroke-width="2"/>
<path d="M82.5 28C82.5 32.909 79.3283 37.7249 73.4183 41.4398C67.5418 45.1336 59.2687 47.5 50 47.5C40.7313 47.5 32.4582 45.1336 26.5817 41.4398C20.6717 37.7249 17.5 32.909 17.5 28C17.5 23.091 20.6717 18.2751 26.5817 14.5602C32.4582 10.8664 40.7313 8.5 50 8.5C59.2687 8.5 67.5418 10.8664 73.4183 14.5602C79.3283 18.2751 82.5 23.091 82.5 28Z" stroke="#FDEEE0" stroke-width="5"/>
<ellipse cx="50.5" cy="85.5" rx="50.5" ry="28.5" fill="black"/>
<rect x="101" y="29" width="101" height="56" fill="black"/>
<ellipse cx="151.5" cy="28.5" rx="50.5" ry="28.5" fill="#252525"/>
<ellipse cx="152" cy="27.5" rx="45" ry="23.5" fill="#FDEEE0"/>
<ellipse cx="151.5" cy="28" rx="30.5" ry="17" fill="#AF282F"/>
<path d="M138.5 11.5C159.423 28.7814 168.781 31.72 182.5 28.5M131.5 15C134.468 27.2122 137.355 37.7183 161 45" stroke="#CD614A" stroke-width="2"/>
<path d="M183.5 28C183.5 32.909 180.328 37.7249 174.418 41.4398C168.542 45.1336 160.269 47.5 151 47.5C141.731 47.5 133.458 45.1336 127.582 41.4398C121.672 37.7249 118.5 32.909 118.5 28C118.5 23.091 121.672 18.2751 127.582 14.5602C133.458 10.8664 141.731 8.5 151 8.5C160.269 8.5 168.542 10.8664 174.418 14.5602C180.328 18.2751 183.5 23.091 183.5 28Z" stroke="#FDEEE0" stroke-width="5"/>
<ellipse cx="151.5" cy="85.5" rx="50.5" ry="28.5" fill="black"/>
<rect y="88" width="101" height="56" fill="black"/>
<ellipse cx="50.5" cy="87.5" rx="50.5" ry="28.5" fill="#252525"/>
<ellipse cx="51" cy="86.5" rx="45" ry="23.5" fill="#FDEEE0"/>
<ellipse cx="50.5" cy="87" rx="30.5" ry="17" fill="#AF282F"/>
<path d="M37.5 70.5C58.4226 87.7814 67.7811 90.72 81.5 87.5M30.5 74C33.4684 86.2122 36.3554 96.7183 60 104" stroke="#CD614A" stroke-width="2"/>
<path d="M82.5 87C82.5 91.909 79.3283 96.7249 73.4183 100.44C67.5418 104.134 59.2687 106.5 50 106.5C40.7313 106.5 32.4582 104.134 26.5817 100.44C20.6717 96.7249 17.5 91.909 17.5 87C17.5 82.091 20.6717 77.2751 26.5817 73.5602C32.4582 69.8664 40.7313 67.5 50 67.5C59.2687 67.5 67.5418 69.8664 73.4183 73.5602C79.3283 77.2751 82.5 82.091 82.5 87Z" stroke="#FDEEE0" stroke-width="5"/>
<ellipse cx="50.5" cy="144.5" rx="50.5" ry="28.5" fill="black"/>
<rect x="101" y="88" width="101" height="56" fill="black"/>
<ellipse cx="151.5" cy="87.5" rx="50.5" ry="28.5" fill="#252525"/>
<ellipse cx="152" cy="86.5" rx="45" ry="23.5" fill="#FDEEE0"/>
<ellipse cx="151.5" cy="87" rx="30.5" ry="17" fill="#AF282F"/>
<path d="M138.5 70.5C159.423 87.7814 168.781 90.72 182.5 87.5M131.5 74C134.468 86.2122 137.355 96.7183 161 104" stroke="#CD614A" stroke-width="2"/>
<path d="M183.5 87C183.5 91.909 180.328 96.7249 174.418 100.44C168.542 104.134 160.269 106.5 151 106.5C141.731 106.5 133.458 104.134 127.582 100.44C121.672 96.7249 118.5 91.909 118.5 87C118.5 82.091 121.672 77.2751 127.582 73.5602C133.458 69.8664 141.731 67.5 151 67.5C160.269 67.5 168.542 69.8664 174.418 73.5602C180.328 77.2751 183.5 82.091 183.5 87Z" stroke="#FDEEE0" stroke-width="5"/>
<ellipse cx="151.5" cy="144.5" rx="50.5" ry="28.5" fill="black"/>
</svg>
