<svg width="327" height="187" viewBox="0 0 327 187" fill="none" xmlns="http://www.w3.org/2000/svg">
<path d="M161.477 23.0865L314.582 26.0626C314.582 26.0626 326.51 76.5542 311.516 91.6748C296.521 106.795 171.656 104.62 158.41 88.6987C145.165 72.7779 161.477 23.0865 161.477 23.0865Z" fill="#FDEEE0"/>
<circle cx="160.649" cy="56.618" r="10.5" transform="rotate(13.4079 160.649 56.618)" fill="#FDEEE0"/>
<circle cx="165.227" cy="87.0079" r="11" transform="rotate(13.4079 165.227 87.0079)" fill="#FDEEE0"/>
<circle cx="165.227" cy="87.0079" r="11" transform="rotate(13.4079 165.227 87.0079)" fill="#FDEEE0"/>
<ellipse cx="311.549" cy="59.6928" rx="11" ry="10.5" transform="rotate(13.4079 311.549 59.6928)" fill="#FDEEE0"/>
<circle cx="206.082" cy="96.7469" r="11" transform="rotate(13.4079 206.082 96.7469)" fill="#FDEEE0"/>
<ellipse cx="176.343" cy="94.2837" rx="7.5" ry="6.5" transform="rotate(13.4079 176.343 94.2837)" fill="#FDEEE0"/>
<ellipse cx="176.343" cy="94.2837" rx="7.5" ry="6.5" transform="rotate(13.4079 176.343 94.2837)" fill="#FDEEE0"/>
<ellipse cx="312.538" cy="83.5732" rx="7.5" ry="8.5" transform="rotate(13.4079 312.538 83.5732)" fill="#FDEEE0"/>
<ellipse cx="11.1477" cy="7.17326" rx="11.1477" ry="7.17326" transform="matrix(0.956415 -0.292012 0.235357 0.971909 273.848 90.9134)" fill="#FDEEE0"/>
<ellipse cx="312.519" cy="70.7182" rx="7.5" ry="7" transform="rotate(13.4079 312.519 70.7182)" fill="#FDEEE0"/>
<ellipse cx="270.125" cy="97.6211" rx="7.5" ry="7" transform="rotate(13.4079 270.125 97.6211)" fill="#FDEEE0"/>
<ellipse cx="256.113" cy="91.711" rx="11.5" ry="12.5" transform="rotate(13.4079 256.113 91.711)" fill="#FDEEE0"/>
<circle cx="242.121" cy="98.6559" r="7.5" transform="rotate(13.4079 242.121 98.6559)" fill="#FDEEE0"/>
<ellipse cx="11.4274" cy="7.44657" rx="11.4274" ry="7.44657" transform="matrix(0.987117 0.16 -0.169395 0.985548 215.293 90.2257)" fill="#FDEEE0"/>
<circle cx="302.947" cy="93.6229" r="7.5" transform="rotate(13.4079 302.947 93.6229)" fill="#FDEEE0"/>
<ellipse cx="159.277" cy="75.3094" rx="7.5" ry="8" transform="rotate(13.4079 159.277 75.3094)" fill="#FDEEE0"/>
<ellipse cx="190.032" cy="92.9208" rx="8.5" ry="7" transform="rotate(13.4079 190.032 92.9208)" fill="#FDEEE0"/>
<path d="M167.707 13.5745C185.569 0.175725 281.157 -4.94026 301.987 10.8135C322.817 26.5672 332.736 36.5445 319.972 49.8713C307.208 63.1982 164.773 62.3089 153.961 51.9325C143.15 41.5561 149.845 26.9732 167.707 13.5745Z" fill="#AF282F"/>
<path d="M182.929 64.4991C174.404 25.3836 188.617 5.69072 194.871 5.66461" stroke="#CD614A" stroke-width="2"/>
<path d="M212.993 63.4417C201.369 22.3514 217.558 2.35992 225.004 2.56778" stroke="#CD614A" stroke-width="2"/>
<path d="M247.922 63.5439C236.298 22.4536 251.933 2.33015 259.38 2.53801" stroke="#CD614A" stroke-width="2"/>
<path d="M279.931 62.9501C270.989 25.5891 283.994 6.76247 290.231 6.80812" stroke="#CD614A" stroke-width="2"/>
<rect x="203.638" y="59.1967" width="18" height="7.62891" transform="rotate(2.50778 203.638 59.1967)" fill="#FDEEE0"/>
<rect x="238.365" y="59.7337" width="18" height="8.38885" transform="rotate(-0.243043 238.365 59.7337)" fill="#FDEEE0"/>
<rect x="269.653" y="58.8061" width="18" height="8.24874" transform="rotate(-3.44421 269.653 58.8061)" fill="#FDEEE0"/>
<rect x="172.539" y="56.8174" width="18" height="7.62891" transform="rotate(5.32124 172.539 56.8174)" fill="#FDEEE0"/>
<path d="M293.381 6.53104C293.867 6.64698 288.308 8.4058 288.308 8.4058L289.374 6.08988L289.976 5.71945L293.381 6.53104Z" fill="#CD614A" stroke="#CD614A" stroke-width="0.3"/>
<path d="M263.248 1.40416C263.748 1.39042 259.148 3.51078 259.148 3.51078L259.112 1.98722L259.612 1.56528C259.612 1.56528 262.749 1.4179 263.248 1.40416Z" fill="#CD614A" stroke="#CD614A" stroke-width="0.3"/>
<path d="M198.29 4.43381C198.79 4.42006 194.664 6.6434 194.664 6.6434L194.154 5.01687L194.039 4.95244C194.039 4.95244 197.79 4.44755 198.29 4.43381Z" fill="#CD614A" stroke="#CD614A" stroke-width="0.3"/>
<path d="M228.821 1.43152C229.321 1.41778 224.706 3.52467 224.706 3.52467L224.685 2.01458L224.081 1.83364C224.081 1.83364 228.321 1.44526 228.821 1.43152Z" fill="#CD614A" stroke="#CD614A" stroke-width="0.3"/>
<path d="M86.4766 54.5068L239.582 57.537C239.582 57.537 251.51 108.948 236.516 124.344C221.521 139.739 96.6561 137.524 83.4105 121.313C70.1649 105.103 86.4766 54.5068 86.4766 54.5068Z" fill="#FDEEE0"/>
<ellipse cx="10.5104" cy="10.6809" rx="10.5104" ry="10.6809" transform="matrix(0.971785 0.23587 -0.227954 0.973672 77.8696 75.7698)" fill="#FDEEE0"/>
<ellipse cx="11.0109" cy="11.1896" rx="11.0109" ry="11.1896" transform="matrix(0.971785 0.23587 -0.227954 0.973672 82.0771 106.1)" fill="#FDEEE0"/>
<ellipse cx="11.0109" cy="11.1896" rx="11.0109" ry="11.1896" transform="matrix(0.971785 0.23587 -0.227954 0.973672 82.0771 106.1)" fill="#FDEEE0"/>
<ellipse cx="11.0109" cy="10.6809" rx="11.0109" ry="10.6809" transform="matrix(0.971785 0.23587 -0.227954 0.973672 228.283 78.7825)" fill="#FDEEE0"/>
<ellipse cx="11.0109" cy="11.1896" rx="11.0109" ry="11.1896" transform="matrix(0.971785 0.23587 -0.227954 0.973672 122.933 116.016)" fill="#FDEEE0"/>
<ellipse cx="7.5074" cy="6.61201" rx="7.5074" ry="6.61201" transform="matrix(0.971785 0.23587 -0.227954 0.973672 95.5542 118.791)" fill="#FDEEE0"/>
<ellipse cx="7.5074" cy="6.61201" rx="7.5074" ry="6.61201" transform="matrix(0.971785 0.23587 -0.227954 0.973672 95.5542 118.791)" fill="#FDEEE0"/>
<ellipse cx="7.5074" cy="8.64647" rx="7.5074" ry="8.64647" transform="matrix(0.971785 0.23587 -0.227954 0.973672 232.214 105.905)" fill="#FDEEE0"/>
<ellipse cx="11.1651" cy="7.29665" rx="11.1651" ry="7.29665" transform="matrix(0.95492 -0.296862 0.231377 0.972864 198.848 123.568)" fill="#FDEEE0"/>
<ellipse cx="7.5074" cy="7.12062" rx="7.5074" ry="7.12062" transform="matrix(0.971785 0.23587 -0.227954 0.973672 231.846 94.3016)" fill="#FDEEE0"/>
<ellipse cx="7.5074" cy="7.12062" rx="7.5074" ry="7.12062" transform="matrix(0.971785 0.23587 -0.227954 0.973672 189.452 121.694)" fill="#FDEEE0"/>
<ellipse cx="11.5114" cy="12.7154" rx="11.5114" ry="12.7154" transform="matrix(0.971785 0.23587 -0.227954 0.973672 172.825 109.285)" fill="#FDEEE0"/>
<ellipse cx="7.5074" cy="7.62924" rx="7.5074" ry="7.62924" transform="matrix(0.971785 0.23587 -0.227954 0.973672 161.565 122.253)" fill="#FDEEE0"/>
<ellipse cx="11.4328" cy="7.57826" rx="11.4328" ry="7.57826" transform="matrix(0.986653 0.162835 -0.166451 0.98605 140.293 122.868)" fill="#FDEEE0"/>
<ellipse cx="7.5074" cy="7.62924" rx="7.5074" ry="7.62924" transform="matrix(0.971785 0.23587 -0.227954 0.973672 222.39 117.128)" fill="#FDEEE0"/>
<ellipse cx="7.5074" cy="8.13786" rx="7.5074" ry="8.13786" transform="matrix(0.971785 0.23587 -0.227954 0.973672 78.8364 97.9858)" fill="#FDEEE0"/>
<ellipse cx="8.50839" cy="7.12062" rx="8.50839" ry="7.12062" transform="matrix(0.971785 0.23587 -0.227954 0.973672 108.387 116.672)" fill="#FDEEE0"/>
<path d="M92.7072 44.8216C110.569 31.1789 206.157 25.9698 226.987 42.0103C247.817 58.0508 257.736 68.2097 244.972 81.7791C232.208 95.3485 89.7726 94.4431 78.9611 83.8778C68.1496 73.3125 74.845 58.4642 92.7072 44.8216Z" fill="#AF282F"/>
<path d="M107.929 96.6731C99.4043 56.8457 113.617 36.7943 119.871 36.7677" stroke="#CD614A" stroke-width="2"/>
<path d="M137.993 95.5965C126.369 53.7583 142.558 33.4029 150.004 33.6145" stroke="#CD614A" stroke-width="2"/>
<path d="M172.922 95.7005C161.298 53.8623 176.933 33.3726 184.38 33.5842" stroke="#CD614A" stroke-width="2"/>
<path d="M204.931 95.0959C195.989 57.0549 208.994 37.8856 215.231 37.932" stroke="#CD614A" stroke-width="2"/>
<rect width="18.0006" height="7.76751" transform="matrix(0.999007 0.0445499 -0.0429743 0.999076 128.638 91.2742)" fill="#FDEEE0"/>
<rect width="18" height="8.54154" transform="matrix(0.999991 -0.0043191 0.00416605 0.999991 163.365 91.821)" fill="#FDEEE0"/>
<rect width="18.0012" height="8.39835" transform="matrix(0.998128 -0.0611661 0.0590064 0.998258 194.653 90.8765)" fill="#FDEEE0"/>
<rect width="18.0028" height="7.76659" transform="matrix(0.995533 0.0944129 -0.0910957 0.995842 97.5386 88.8517)" fill="#FDEEE0"/>
<path d="M218.381 37.6499C218.867 37.768 213.308 39.5588 213.308 39.5588L214.374 37.2007L214.976 36.8236L218.381 37.6499Z" fill="#CD614A" stroke="#CD614A" stroke-width="0.3"/>
<path d="M188.248 32.4297C188.748 32.4157 184.148 34.5747 184.148 34.5747L184.112 33.0234L184.612 32.5938C184.612 32.5938 187.749 32.4437 188.248 32.4297Z" fill="#CD614A" stroke="#CD614A" stroke-width="0.3"/>
<path d="M123.29 35.5145C123.79 35.5005 119.664 37.7643 119.664 37.7643L119.154 36.1082L119.039 36.0426C119.039 36.0426 122.79 35.5285 123.29 35.5145Z" fill="#CD614A" stroke="#CD614A" stroke-width="0.3"/>
<path d="M153.821 32.4576C154.321 32.4436 149.706 34.5888 149.706 34.5888L149.685 33.0513L149.081 32.867C149.081 32.867 153.321 32.4716 153.821 32.4576Z" fill="#CD614A" stroke="#CD614A" stroke-width="0.3"/>
<path d="M13.4766 100.087L166.582 103.063C166.582 103.063 178.51 153.554 163.516 168.675C148.521 183.795 23.6561 181.62 10.4105 165.699C-2.83509 149.778 13.4766 100.087 13.4766 100.087Z" fill="#FDEEE0"/>
<circle cx="12.6487" cy="133.618" r="10.5" transform="rotate(13.4079 12.6487 133.618)" fill="#FDEEE0"/>
<circle cx="17.2266" cy="164.008" r="11" transform="rotate(13.4079 17.2266 164.008)" fill="#FDEEE0"/>
<circle cx="17.2266" cy="164.008" r="11" transform="rotate(13.4079 17.2266 164.008)" fill="#FDEEE0"/>
<ellipse cx="163.549" cy="136.693" rx="11" ry="10.5" transform="rotate(13.4079 163.549 136.693)" fill="#FDEEE0"/>
<circle cx="58.0821" cy="173.747" r="11" transform="rotate(13.4079 58.0821 173.747)" fill="#FDEEE0"/>
<ellipse cx="28.3425" cy="171.284" rx="7.5" ry="6.5" transform="rotate(13.4079 28.3425 171.284)" fill="#FDEEE0"/>
<ellipse cx="28.3425" cy="171.284" rx="7.5" ry="6.5" transform="rotate(13.4079 28.3425 171.284)" fill="#FDEEE0"/>
<ellipse cx="164.538" cy="160.573" rx="7.5" ry="8.5" transform="rotate(13.4079 164.538 160.573)" fill="#FDEEE0"/>
<ellipse cx="11.1477" cy="7.17326" rx="11.1477" ry="7.17326" transform="matrix(0.956415 -0.292012 0.235357 0.971909 125.848 167.913)" fill="#FDEEE0"/>
<ellipse cx="164.519" cy="147.718" rx="7.5" ry="7" transform="rotate(13.4079 164.519 147.718)" fill="#FDEEE0"/>
<ellipse cx="122.125" cy="174.621" rx="7.5" ry="7" transform="rotate(13.4079 122.125 174.621)" fill="#FDEEE0"/>
<ellipse cx="108.113" cy="168.711" rx="11.5" ry="12.5" transform="rotate(13.4079 108.113 168.711)" fill="#FDEEE0"/>
<circle cx="94.1214" cy="175.656" r="7.5" transform="rotate(13.4079 94.1214 175.656)" fill="#FDEEE0"/>
<ellipse cx="11.4274" cy="7.44657" rx="11.4274" ry="7.44657" transform="matrix(0.987117 0.16 -0.169395 0.985548 67.2935 167.226)" fill="#FDEEE0"/>
<circle cx="154.947" cy="170.623" r="7.5" transform="rotate(13.4079 154.947 170.623)" fill="#FDEEE0"/>
<ellipse cx="11.2769" cy="152.309" rx="7.5" ry="8" transform="rotate(13.4079 11.2769 152.309)" fill="#FDEEE0"/>
<ellipse cx="42.0319" cy="169.921" rx="8.5" ry="7" transform="rotate(13.4079 42.0319 169.921)" fill="#FDEEE0"/>
<path d="M19.7072 90.5745C37.5693 77.1757 133.157 72.0597 153.987 87.8135C174.817 103.567 184.736 113.545 171.972 126.871C159.208 140.198 16.7726 139.309 5.96112 128.932C-4.85042 118.556 1.84503 103.973 19.7072 90.5745Z" fill="#AF282F"/>
<path d="M34.9287 141.499C26.4043 102.384 40.6175 82.6907 46.8707 82.6646" stroke="#CD614A" stroke-width="2"/>
<path d="M64.993 140.442C53.3695 99.3514 69.5576 79.3599 77.0045 79.5678" stroke="#CD614A" stroke-width="2"/>
<path d="M99.9218 140.544C88.2984 99.4536 103.933 79.3302 111.38 79.538" stroke="#CD614A" stroke-width="2"/>
<path d="M131.931 139.95C122.989 102.589 135.994 83.7625 142.231 83.8081" stroke="#CD614A" stroke-width="2"/>
<rect x="55.6377" y="136.197" width="18" height="7.62891" transform="rotate(2.50778 55.6377 136.197)" fill="#FDEEE0"/>
<rect x="90.3652" y="136.734" width="18" height="8.38885" transform="rotate(-0.243043 90.3652 136.734)" fill="#FDEEE0"/>
<rect x="121.653" y="135.806" width="18" height="8.24874" transform="rotate(-3.44421 121.653 135.806)" fill="#FDEEE0"/>
<rect x="24.5386" y="133.817" width="18" height="7.62891" transform="rotate(5.32124 24.5386 133.817)" fill="#FDEEE0"/>
<path d="M145.381 83.5311C145.867 83.647 140.308 85.4058 140.308 85.4058L141.374 83.0899L141.976 82.7195L145.381 83.5311Z" fill="#CD614A" stroke="#CD614A" stroke-width="0.3"/>
<path d="M115.248 78.4042C115.748 78.3904 111.148 80.5108 111.148 80.5108L111.112 78.9872L111.612 78.5653C111.612 78.5653 114.749 78.4179 115.248 78.4042Z" fill="#CD614A" stroke="#CD614A" stroke-width="0.3"/>
<path d="M50.2902 81.4338C50.79 81.4201 46.6638 83.6434 46.6638 83.6434L46.1542 82.0169L46.0391 81.9524C46.0391 81.9524 49.7904 81.4476 50.2902 81.4338Z" fill="#CD614A" stroke="#CD614A" stroke-width="0.3"/>
<path d="M80.821 78.4315C81.3209 78.4178 76.7064 80.5247 76.7064 80.5247L76.6851 79.0146L76.0813 78.8336C76.0813 78.8336 80.3212 78.4453 80.821 78.4315Z" fill="#CD614A" stroke="#CD614A" stroke-width="0.3"/>
</svg>
