<svg width="210" height="180" viewBox="0 0 210 180" fill="none" xmlns="http://www.w3.org/2000/svg">
<rect x="3" y="29" width="101" height="56" fill="#FDEEE0"/>
<path d="M103.067 33.9531C100.906 40.2081 95.0932 45.874 86.5566 50.0456C78.0199 54.2171 67.2521 56.6536 55.9736 56.9658C44.695 57.278 33.5565 55.4478 24.3375 51.7677C15.1185 48.0876 8.35099 42.7699 5.11621 36.6642" stroke="black" stroke-width="0.2"/>
<ellipse cx="53.5" cy="28.5" rx="50.5" ry="28.5" fill="#FDEEE0"/>
<ellipse cx="54" cy="27.5" rx="45" ry="23.5" fill="#FDEEE0"/>
<ellipse cx="53.5" cy="28" rx="30.5" ry="17" fill="#AF282F"/>
<path d="M40.5 11.5C61.4226 28.7814 70.7811 31.72 84.5 28.5M33.5 15C36.4684 27.2122 39.3554 37.7183 63 45" stroke="#CD614A" stroke-width="2"/>
<path d="M85 28C85 32.7445 81.7034 37.2236 75.9763 40.5717C70.2733 43.9058 62.329 46 53.5 46C44.671 46 36.7267 43.9058 31.0237 40.5717C25.2966 37.2236 22 32.7445 22 28C22 23.2555 25.2966 18.7764 31.0237 15.4283C36.7267 12.0942 44.671 10 53.5 10C62.329 10 70.2733 12.0942 75.9763 15.4283C81.7034 18.7764 85 23.2555 85 28Z" stroke="#394D4E" stroke-width="2"/>
<ellipse cx="53.5" cy="85.5" rx="50.5" ry="28.5" fill="#FDEEE0"/>
<ellipse cx="9.71942" cy="56.5837" rx="1.46662" ry="3.90969" transform="rotate(31.2134 9.71942 56.5837)" fill="black"/>
<ellipse cx="31.7959" cy="68.3038" rx="1.46662" ry="2.97435" transform="rotate(31.2134 31.7959 68.3038)" fill="#FFCFA3"/>
<ellipse cx="50.7957" cy="84.3038" rx="1.46662" ry="2.97435" transform="rotate(-28.7995 50.7957 84.3038)" fill="#FFCFA3"/>
<ellipse cx="19.7181" cy="89.313" rx="1.46662" ry="2.97435" transform="rotate(-28.7995 19.7181 89.313)" fill="#FFCFA3"/>
<ellipse cx="77.8493" cy="80.2935" rx="1.46662" ry="2.97435" transform="rotate(32.9741 77.8493 80.2935)" fill="#FFCFA3"/>
<ellipse cx="97.8493" cy="69.2935" rx="1.46662" ry="2.97435" transform="rotate(32.9741 97.8493 69.2935)" fill="#FFCFA3"/>
<ellipse cx="63.9202" cy="103.273" rx="1.46662" ry="2.97435" transform="rotate(35.4685 63.9202 103.273)" fill="#FFCFA3"/>
<ellipse cx="41.9202" cy="102.273" rx="1.46662" ry="2.97435" transform="rotate(35.4685 41.9202 102.273)" fill="#FFCFA3"/>
<ellipse cx="35.2805" cy="84.1038" rx="1.46662" ry="3.90969" transform="rotate(31.2134 35.2805 84.1038)" fill="black"/>
<ellipse cx="95.2805" cy="52.1038" rx="1.46662" ry="3.90969" transform="rotate(31.2134 95.2805 52.1038)" fill="black"/>
<ellipse cx="81.2805" cy="97.1038" rx="1.46662" ry="3.90969" transform="rotate(31.2134 81.2805 97.1038)" fill="black"/>
<ellipse cx="18.8669" cy="74.1725" rx="1.46662" ry="3.90969" transform="rotate(-22.797 18.8669 74.1725)" fill="black"/>
<ellipse cx="49.8669" cy="97.1725" rx="1.46662" ry="3.90969" transform="rotate(-22.797 49.8669 97.1725)" fill="black"/>
<ellipse cx="91.8669" cy="84.1725" rx="1.46662" ry="3.90969" transform="rotate(-22.797 91.8669 84.1725)" fill="black"/>
<ellipse cx="47.8669" cy="68.1725" rx="1.46662" ry="3.90969" transform="rotate(-22.797 47.8669 68.1725)" fill="black"/>
<ellipse cx="24.8669" cy="101.173" rx="1.46662" ry="3.90969" transform="rotate(-22.797 24.8669 101.173)" fill="black"/>
<ellipse cx="63.9292" cy="83.0585" rx="1.46662" ry="3.90969" transform="rotate(-6.95409 63.9292 83.0585)" fill="black"/>
<ellipse cx="77.8669" cy="67.1725" rx="1.46662" ry="3.90969" transform="rotate(-22.797 77.8669 67.1725)" fill="black"/>
<ellipse cx="8.64914" cy="86.929" rx="1.46662" ry="3.90969" transform="rotate(5.97776 8.64914 86.929)" fill="black"/>
<rect x="4" y="89" width="101" height="56" fill="#FDEEE0"/>
<path d="M104.067 93.9531C101.906 100.208 96.0932 105.874 87.5566 110.046C79.0199 114.217 68.2521 116.654 56.9736 116.966C45.695 117.278 34.5565 115.448 25.3375 111.768C16.1185 108.088 9.35099 102.77 6.11621 96.6642" stroke="black" stroke-width="0.2"/>
<g filter="url(#filter0_d_143_347)">
<ellipse cx="54.5" cy="88.5" rx="50.5" ry="28.5" fill="#FDEEE0"/>
</g>
<ellipse cx="55" cy="87.5" rx="45" ry="23.5" fill="#FDEEE0"/>
<ellipse cx="54.5" cy="88" rx="30.5" ry="17" fill="#AF282F"/>
<path d="M41.5 71.5C62.4226 88.7814 71.7811 91.72 85.5 88.5M34.5 75C37.4684 87.2122 40.3554 97.7183 64 105" stroke="#CD614A" stroke-width="2"/>
<path d="M86 88C86 92.7445 82.7034 97.2236 76.9763 100.572C71.2733 103.906 63.329 106 54.5 106C45.671 106 37.7267 103.906 32.0237 100.572C26.2966 97.2236 23 92.7445 23 88C23 83.2555 26.2966 78.7764 32.0237 75.4283C37.7267 72.0942 45.671 70 54.5 70C63.329 70 71.2733 72.0942 76.9763 75.4283C82.7034 78.7764 86 83.2555 86 88Z" stroke="#394D4E" stroke-width="2"/>
<ellipse cx="54.5" cy="145.5" rx="50.5" ry="28.5" fill="#FDEEE0"/>
<ellipse cx="10.7194" cy="116.584" rx="1.46662" ry="3.90969" transform="rotate(31.2134 10.7194 116.584)" fill="black"/>
<ellipse cx="32.7959" cy="128.304" rx="1.46662" ry="2.97435" transform="rotate(31.2134 32.7959 128.304)" fill="#FFCFA3"/>
<ellipse cx="51.7957" cy="144.304" rx="1.46662" ry="2.97435" transform="rotate(-28.7995 51.7957 144.304)" fill="#FFCFA3"/>
<ellipse cx="20.7181" cy="149.313" rx="1.46662" ry="2.97435" transform="rotate(-28.7995 20.7181 149.313)" fill="#FFCFA3"/>
<ellipse cx="78.8493" cy="140.293" rx="1.46662" ry="2.97435" transform="rotate(32.9741 78.8493 140.293)" fill="#FFCFA3"/>
<ellipse cx="98.8493" cy="129.293" rx="1.46662" ry="2.97435" transform="rotate(32.9741 98.8493 129.293)" fill="#FFCFA3"/>
<ellipse cx="64.9202" cy="163.273" rx="1.46662" ry="2.97435" transform="rotate(35.4685 64.9202 163.273)" fill="#FFCFA3"/>
<ellipse cx="42.9202" cy="162.273" rx="1.46662" ry="2.97435" transform="rotate(35.4685 42.9202 162.273)" fill="#FFCFA3"/>
<ellipse cx="36.2805" cy="144.104" rx="1.46662" ry="3.90969" transform="rotate(31.2134 36.2805 144.104)" fill="black"/>
<ellipse cx="96.2805" cy="112.104" rx="1.46662" ry="3.90969" transform="rotate(31.2134 96.2805 112.104)" fill="black"/>
<ellipse cx="82.2805" cy="157.104" rx="1.46662" ry="3.90969" transform="rotate(31.2134 82.2805 157.104)" fill="black"/>
<ellipse cx="19.8669" cy="134.173" rx="1.46662" ry="3.90969" transform="rotate(-22.797 19.8669 134.173)" fill="black"/>
<ellipse cx="50.8669" cy="157.173" rx="1.46662" ry="3.90969" transform="rotate(-22.797 50.8669 157.173)" fill="black"/>
<ellipse cx="92.8669" cy="144.173" rx="1.46662" ry="3.90969" transform="rotate(-22.797 92.8669 144.173)" fill="black"/>
<ellipse cx="48.8669" cy="128.173" rx="1.46662" ry="3.90969" transform="rotate(-22.797 48.8669 128.173)" fill="black"/>
<ellipse cx="25.8669" cy="161.173" rx="1.46662" ry="3.90969" transform="rotate(-22.797 25.8669 161.173)" fill="black"/>
<ellipse cx="64.9292" cy="143.059" rx="1.46662" ry="3.90969" transform="rotate(-6.95409 64.9292 143.059)" fill="black"/>
<ellipse cx="78.8669" cy="127.173" rx="1.46662" ry="3.90969" transform="rotate(-22.797 78.8669 127.173)" fill="black"/>
<ellipse cx="9.64914" cy="146.929" rx="1.46662" ry="3.90969" transform="rotate(5.97776 9.64914 146.929)" fill="black"/>
<rect x="104" y="29" width="101" height="56" fill="#FDEEE0"/>
<path d="M204.067 33.9531C201.906 40.2081 196.093 45.874 187.557 50.0456C179.02 54.2171 168.252 56.6536 156.974 56.9658C145.695 57.278 134.556 55.4478 125.337 51.7677C116.118 48.0876 109.351 42.7699 106.116 36.6642" stroke="black" stroke-width="0.2"/>
<ellipse cx="154.5" cy="28.5" rx="50.5" ry="28.5" fill="#FDEEE0"/>
<ellipse cx="155" cy="27.5" rx="45" ry="23.5" fill="#FDEEE0"/>
<ellipse cx="154.5" cy="28" rx="30.5" ry="17" fill="#AF282F"/>
<path d="M141.5 11.5C162.423 28.7814 171.781 31.72 185.5 28.5M134.5 15C137.468 27.2122 140.355 37.7183 164 45" stroke="#CD614A" stroke-width="2"/>
<path d="M186 28C186 32.7445 182.703 37.2236 176.976 40.5717C171.273 43.9058 163.329 46 154.5 46C145.671 46 137.727 43.9058 132.024 40.5717C126.297 37.2236 123 32.7445 123 28C123 23.2555 126.297 18.7764 132.024 15.4283C137.727 12.0942 145.671 10 154.5 10C163.329 10 171.273 12.0942 176.976 15.4283C182.703 18.7764 186 23.2555 186 28Z" stroke="#394D4E" stroke-width="2"/>
<ellipse cx="154.5" cy="85.5" rx="50.5" ry="28.5" fill="#FDEEE0"/>
<ellipse cx="110.719" cy="56.5837" rx="1.46662" ry="3.90969" transform="rotate(31.2134 110.719 56.5837)" fill="black"/>
<ellipse cx="132.796" cy="68.3038" rx="1.46662" ry="2.97435" transform="rotate(31.2134 132.796 68.3038)" fill="#FFCFA3"/>
<ellipse cx="151.796" cy="84.3038" rx="1.46662" ry="2.97435" transform="rotate(-28.7995 151.796 84.3038)" fill="#FFCFA3"/>
<ellipse cx="120.718" cy="89.313" rx="1.46662" ry="2.97435" transform="rotate(-28.7995 120.718 89.313)" fill="#FFCFA3"/>
<ellipse cx="178.849" cy="80.2935" rx="1.46662" ry="2.97435" transform="rotate(32.9741 178.849 80.2935)" fill="#FFCFA3"/>
<ellipse cx="198.849" cy="69.2935" rx="1.46662" ry="2.97435" transform="rotate(32.9741 198.849 69.2935)" fill="#FFCFA3"/>
<ellipse cx="164.92" cy="103.273" rx="1.46662" ry="2.97435" transform="rotate(35.4685 164.92 103.273)" fill="#FFCFA3"/>
<ellipse cx="142.92" cy="102.273" rx="1.46662" ry="2.97435" transform="rotate(35.4685 142.92 102.273)" fill="#FFCFA3"/>
<ellipse cx="136.28" cy="84.1038" rx="1.46662" ry="3.90969" transform="rotate(31.2134 136.28 84.1038)" fill="black"/>
<ellipse cx="196.28" cy="52.1038" rx="1.46662" ry="3.90969" transform="rotate(31.2134 196.28 52.1038)" fill="black"/>
<ellipse cx="182.28" cy="97.1038" rx="1.46662" ry="3.90969" transform="rotate(31.2134 182.28 97.1038)" fill="black"/>
<ellipse cx="119.867" cy="74.1725" rx="1.46662" ry="3.90969" transform="rotate(-22.797 119.867 74.1725)" fill="black"/>
<ellipse cx="150.867" cy="97.1725" rx="1.46662" ry="3.90969" transform="rotate(-22.797 150.867 97.1725)" fill="black"/>
<ellipse cx="192.867" cy="84.1725" rx="1.46662" ry="3.90969" transform="rotate(-22.797 192.867 84.1725)" fill="black"/>
<ellipse cx="148.867" cy="68.1725" rx="1.46662" ry="3.90969" transform="rotate(-22.797 148.867 68.1725)" fill="black"/>
<ellipse cx="125.867" cy="101.173" rx="1.46662" ry="3.90969" transform="rotate(-22.797 125.867 101.173)" fill="black"/>
<ellipse cx="164.929" cy="83.0585" rx="1.46662" ry="3.90969" transform="rotate(-6.95409 164.929 83.0585)" fill="black"/>
<ellipse cx="178.867" cy="67.1725" rx="1.46662" ry="3.90969" transform="rotate(-22.797 178.867 67.1725)" fill="black"/>
<ellipse cx="109.649" cy="86.929" rx="1.46662" ry="3.90969" transform="rotate(5.97776 109.649 86.929)" fill="black"/>
<g filter="url(#filter1_d_143_347)">
<rect x="105" y="90" width="101" height="56" fill="#FDEEE0"/>
<path d="M205.067 94.9531C202.906 101.208 197.093 106.874 188.557 111.046C180.02 115.217 169.252 117.654 157.974 117.966C146.695 118.278 135.556 116.448 126.337 112.768C117.118 109.088 110.351 103.77 107.116 97.6642" stroke="black" stroke-width="0.2"/>
<ellipse cx="155.5" cy="89.5" rx="50.5" ry="28.5" fill="#FDEEE0"/>
<ellipse cx="156" cy="88.5" rx="45" ry="23.5" fill="#FDEEE0"/>
<ellipse cx="155.5" cy="89" rx="30.5" ry="17" fill="#AF282F"/>
<path d="M142.5 72.5C163.423 89.7814 172.781 92.72 186.5 89.5M135.5 76C138.468 88.2122 141.355 98.7183 165 106" stroke="#CD614A" stroke-width="2"/>
<path d="M187 89C187 93.7445 183.703 98.2236 177.976 101.572C172.273 104.906 164.329 107 155.5 107C146.671 107 138.727 104.906 133.024 101.572C127.297 98.2236 124 93.7445 124 89C124 84.2555 127.297 79.7764 133.024 76.4283C138.727 73.0942 146.671 71 155.5 71C164.329 71 172.273 73.0942 177.976 76.4283C183.703 79.7764 187 84.2555 187 89Z" stroke="#394D4E" stroke-width="2"/>
<ellipse cx="155.5" cy="146.5" rx="50.5" ry="28.5" fill="#FDEEE0"/>
<ellipse cx="111.719" cy="117.584" rx="1.46662" ry="3.90969" transform="rotate(31.2134 111.719 117.584)" fill="black"/>
<ellipse cx="133.796" cy="129.304" rx="1.46662" ry="2.97435" transform="rotate(31.2134 133.796 129.304)" fill="#FFCFA3"/>
<ellipse cx="152.796" cy="145.304" rx="1.46662" ry="2.97435" transform="rotate(-28.7995 152.796 145.304)" fill="#FFCFA3"/>
<ellipse cx="121.718" cy="150.313" rx="1.46662" ry="2.97435" transform="rotate(-28.7995 121.718 150.313)" fill="#FFCFA3"/>
<ellipse cx="179.849" cy="141.293" rx="1.46662" ry="2.97435" transform="rotate(32.9741 179.849 141.293)" fill="#FFCFA3"/>
<ellipse cx="199.849" cy="130.293" rx="1.46662" ry="2.97435" transform="rotate(32.9741 199.849 130.293)" fill="#FFCFA3"/>
<ellipse cx="165.92" cy="164.273" rx="1.46662" ry="2.97435" transform="rotate(35.4685 165.92 164.273)" fill="#FFCFA3"/>
<ellipse cx="143.92" cy="163.273" rx="1.46662" ry="2.97435" transform="rotate(35.4685 143.92 163.273)" fill="#FFCFA3"/>
<ellipse cx="137.28" cy="145.104" rx="1.46662" ry="3.90969" transform="rotate(31.2134 137.28 145.104)" fill="black"/>
<ellipse cx="197.28" cy="113.104" rx="1.46662" ry="3.90969" transform="rotate(31.2134 197.28 113.104)" fill="black"/>
<ellipse cx="183.28" cy="158.104" rx="1.46662" ry="3.90969" transform="rotate(31.2134 183.28 158.104)" fill="black"/>
<ellipse cx="120.867" cy="135.173" rx="1.46662" ry="3.90969" transform="rotate(-22.797 120.867 135.173)" fill="black"/>
<ellipse cx="151.867" cy="158.173" rx="1.46662" ry="3.90969" transform="rotate(-22.797 151.867 158.173)" fill="black"/>
<ellipse cx="193.867" cy="145.173" rx="1.46662" ry="3.90969" transform="rotate(-22.797 193.867 145.173)" fill="black"/>
<ellipse cx="149.867" cy="129.173" rx="1.46662" ry="3.90969" transform="rotate(-22.797 149.867 129.173)" fill="black"/>
<ellipse cx="126.867" cy="162.173" rx="1.46662" ry="3.90969" transform="rotate(-22.797 126.867 162.173)" fill="black"/>
<ellipse cx="165.929" cy="144.059" rx="1.46662" ry="3.90969" transform="rotate(-6.95409 165.929 144.059)" fill="black"/>
<ellipse cx="179.867" cy="128.173" rx="1.46662" ry="3.90969" transform="rotate(-22.797 179.867 128.173)" fill="black"/>
<ellipse cx="110.649" cy="147.929" rx="1.46662" ry="3.90969" transform="rotate(5.97776 110.649 147.929)" fill="black"/>
</g>
<defs>
<filter id="filter0_d_143_347" x="0" y="53" width="109" height="65" filterUnits="userSpaceOnUse" color-interpolation-filters="sRGB">
<feFlood flood-opacity="0" result="BackgroundImageFix"/>
<feColorMatrix in="SourceAlpha" type="matrix" values="0 0 0 0 0 0 0 0 0 0 0 0 0 0 0 0 0 0 127 0" result="hardAlpha"/>
<feOffset dy="-3"/>
<feGaussianBlur stdDeviation="2"/>
<feComposite in2="hardAlpha" operator="out"/>
<feColorMatrix type="matrix" values="0 0 0 0 0 0 0 0 0 0 0 0 0 0 0 0 0 0 0.25 0"/>
<feBlend mode="normal" in2="BackgroundImageFix" result="effect1_dropShadow_143_347"/>
<feBlend mode="normal" in="SourceGraphic" in2="effect1_dropShadow_143_347" result="shape"/>
</filter>
<filter id="filter1_d_143_347" x="101" y="52" width="109" height="128" filterUnits="userSpaceOnUse" color-interpolation-filters="sRGB">
<feFlood flood-opacity="0" result="BackgroundImageFix"/>
<feColorMatrix in="SourceAlpha" type="matrix" values="0 0 0 0 0 0 0 0 0 0 0 0 0 0 0 0 0 0 127 0" result="hardAlpha"/>
<feOffset dy="-5"/>
<feGaussianBlur stdDeviation="2"/>
<feComposite in2="hardAlpha" operator="out"/>
<feColorMatrix type="matrix" values="0 0 0 0 0 0 0 0 0 0 0 0 0 0 0 0 0 0 0.25 0"/>
<feBlend mode="normal" in2="BackgroundImageFix" result="effect1_dropShadow_143_347"/>
<feBlend mode="normal" in="SourceGraphic" in2="effect1_dropShadow_143_347" result="shape"/>
</filter>
</defs>
</svg>
